<svg width="213" height="56" viewBox="0 0 213 56" fill="none" xmlns="http://www.w3.org/2000/svg">
<path d="M66.2659 15.7884L60.4629 22.321L54.6615 15.7884H54.2002V29.877H56.4698V21.2943L60.4629 25.529L64.4592 21.2911L64.4368 29.8738H66.7064V15.7852L66.2659 15.7884Z" fill="#121C23"/>
<path d="M66.7064 15.7891V29.8729H64.4368L64.4592 21.2885L60.4629 25.5264L56.4698 21.2901V29.8729H54.2002V15.7891H54.6615L60.4629 22.3217L66.2659 15.7891H66.7064Z" fill="#121C23"/>
<path d="M70.5781 16.0127V29.873H72.8077V16.0127H70.5781Z" fill="#121C23"/>
<path d="M72.8077 16.0127H70.5781V29.873H72.8077V16.0127Z" fill="#121C23"/>
<path d="M88.3759 27.6333C90.1105 25.5654 90.4982 22.3201 89.3177 19.7421C88.2077 17.313 85.9349 15.9316 83.0806 15.9316C80.9439 15.9316 79.1516 16.6847 77.9023 18.1081C76.7637 19.4454 76.1495 21.1582 76.1756 22.9225C76.1756 26.2892 78.3363 29.9134 83.0806 29.9134C84.3876 29.9134 85.5024 29.6673 86.4875 29.1572L86.7133 29.0422L87.4837 29.9539H89.8559L88.2141 27.8357L88.3759 27.6333ZM86.9728 25.5071L86.7357 25.9265L85.5344 24.3719H82.9685L85.2285 27.1718L84.8185 27.3337C84.2614 27.5442 83.6704 27.648 83.0758 27.6398C80.1094 27.6398 78.5558 25.2723 78.5558 22.9322C78.5558 20.5922 80.1094 18.2263 83.0758 18.2263C84.7768 18.2263 86.1543 18.9907 86.9504 20.3785C87.3836 21.1614 87.613 22.0427 87.6169 22.9398C87.6208 23.8369 87.3992 24.7203 86.9728 25.5071Z" fill="#121C23"/>
<path d="M88.3759 27.6333C90.1105 25.5654 90.4982 22.3201 89.3177 19.7421C88.2077 17.313 85.9349 15.9316 83.0806 15.9316C80.9439 15.9316 79.1516 16.6847 77.9023 18.1081C76.7637 19.4454 76.1495 21.1582 76.1756 22.9225C76.1756 26.2892 78.3363 29.9134 83.0806 29.9134C84.3876 29.9134 85.5024 29.6673 86.4875 29.1572L86.7133 29.0422L87.4837 29.9539H89.8559L88.2141 27.8357L88.3759 27.6333ZM86.9728 25.5071L86.7357 25.9265L85.5344 24.3719H82.9685L85.2285 27.1718L84.8185 27.3337C84.2614 27.5442 83.6704 27.648 83.0758 27.6398C80.1094 27.6398 78.5558 25.2723 78.5558 22.9322C78.5558 20.5922 80.1094 18.2263 83.0758 18.2263C84.7768 18.2263 86.1543 18.9907 86.9504 20.3785C87.3836 21.1614 87.613 22.0427 87.6169 22.9398C87.6208 23.8369 87.3992 24.7203 86.9728 25.5071Z" fill="#121C23"/>
<path d="M100.963 16.0127V25.125C100.963 26.8351 99.6304 27.7306 98.3138 27.7306C96.9971 27.7306 95.6661 26.8351 95.6661 25.125V16.0127H93.4365V25.1444C93.4365 28.4771 95.9592 29.9945 98.3042 29.9945C100.649 29.9945 103.172 28.4771 103.172 25.1444V16.0127H100.963Z" fill="#121C23"/>
<path d="M103.172 16.0127V25.1444C103.172 28.4771 100.649 29.9945 98.3042 29.9945C95.9592 29.9945 93.4365 28.4771 93.4365 25.1444V16.0127H95.6661V25.125C95.6661 26.8351 96.9988 27.7306 98.3138 27.7306C99.6288 27.7306 100.963 26.8351 100.963 25.125V16.0127H103.172Z" fill="#121C23"/>
<path d="M110.025 12.6846L109.314 14.3704H111.27L112.661 12.6846H110.025ZM109.211 27.6185V24.0689H112.985V21.8163H109.211V18.2666H113.526V16.0124H106.983V29.8727H113.768V27.6185H109.211Z" fill="#121C23"/>
<path d="M110.025 12.6846L109.314 14.3704H111.27L112.661 12.6846H110.025ZM109.211 27.6185V24.0689H112.985V21.8163H109.211V18.2666H113.526V16.0124H106.983V29.8727H113.768V27.6185H109.211Z" fill="#121C23"/>
<path d="M116.778 15.6885V30.1966H119.649V15.6885H116.778Z" fill="#121C23"/>
<path d="M119.328 16.0107H117.099V29.8711H119.328V16.0107Z" fill="#121C23"/>
<path d="M127.785 15.6465L122.068 29.8728H124.613L125.176 28.3101H130.38L130.963 29.8728H133.497L127.785 15.6465ZM125.994 26.234L127.799 21.1686L129.552 26.234H125.994Z" fill="#121C23"/>
<path d="M127.785 15.6465L122.068 29.8728H124.613L125.176 28.3101H130.38L130.963 29.8728H133.497L127.785 15.6465ZM125.994 26.234L127.799 21.1686L129.552 26.234H125.994Z" fill="#121C23"/>
<path d="M139.934 21.7771C139.089 21.4857 138.212 21.0517 138.112 20.0347C138.082 19.7873 138.104 19.5362 138.178 19.2982C138.251 19.0601 138.373 18.8406 138.537 18.6541C138.701 18.4677 138.902 18.3186 139.127 18.2168C139.352 18.1151 139.596 18.0629 139.842 18.0639C139.922 18.0639 140.018 18.0639 140.131 18.0639C140.95 18.0831 141.759 18.2475 142.522 18.5497L142.796 16.4218C141.422 15.9619 140.613 15.9004 140.055 15.9004C139.874 15.9004 139.713 15.9004 139.591 15.915C137.384 16.0267 135.841 17.7141 135.841 20.0153C135.841 22.3164 137.887 23.3949 139.882 24.1334C140.683 24.4151 141.505 24.8459 141.58 25.8872C141.601 26.0876 141.58 26.2903 141.52 26.4825C141.46 26.6747 141.362 26.8524 141.231 27.0045C141.051 27.2107 140.832 27.3787 140.588 27.4988C140.343 27.6189 140.077 27.6887 139.805 27.7041C139.673 27.7154 139.522 27.7219 139.367 27.7219C138.162 27.7195 136.979 27.3937 135.939 26.7778L135.665 29.0757C136.847 29.6652 138.142 29.9837 139.459 30.0085C139.592 30.0085 139.717 30.0085 139.839 29.9955C142.251 29.8676 143.871 28.2288 143.871 25.9147C143.871 24.1285 142.581 22.7666 139.934 21.7771Z" fill="#121C23"/>
<path d="M143.871 25.9098C143.871 28.2239 142.251 29.8627 139.839 29.9907C139.717 29.9988 139.592 30.0036 139.459 30.0036C138.143 29.9803 136.847 29.6635 135.665 29.0757L135.939 26.7729C136.979 27.3888 138.162 27.7146 139.367 27.717C139.527 27.717 139.673 27.717 139.805 27.6992C140.077 27.6838 140.343 27.614 140.588 27.4939C140.832 27.3739 141.051 27.2058 141.231 26.9996C141.362 26.8475 141.46 26.6698 141.52 26.4776C141.58 26.2854 141.601 26.0828 141.58 25.8823C141.505 24.841 140.678 24.4102 139.882 24.1285C137.887 23.39 135.841 22.3212 135.841 20.0104C135.841 17.6995 137.384 16.0218 139.591 15.9101C139.713 15.9101 139.874 15.8955 140.055 15.8955C140.613 15.8955 141.422 15.957 142.796 16.4169L142.522 18.5448C141.759 18.2427 140.95 18.0782 140.131 18.059C140.018 18.059 139.922 18.059 139.842 18.059C139.596 18.058 139.352 18.1102 139.127 18.212C138.902 18.3137 138.701 18.4628 138.537 18.6492C138.373 18.8357 138.251 19.0552 138.178 19.2933C138.104 19.5313 138.082 19.7824 138.112 20.0298C138.212 21.0468 139.089 21.4873 139.934 21.7723C142.581 22.7666 143.871 24.1285 143.871 25.9098Z" fill="#121C23"/>
<path d="M161.453 27.1037C160.657 27.4317 159.806 27.6001 158.946 27.5992C155.938 27.5992 154.365 25.2106 154.365 22.8512C154.365 20.4917 155.938 18.1032 158.946 18.1032C159.712 18.086 160.471 18.2437 161.168 18.5647L161.429 16.2781C160.637 15.9721 159.794 15.8199 158.946 15.8295C154.156 15.8295 151.973 19.4829 151.973 22.8771C151.946 24.6534 152.565 26.3777 153.714 27.7223C154.977 29.1555 156.786 29.9133 158.946 29.9133C159.9 29.8992 160.846 29.732 161.748 29.4178L161.453 27.1037Z" fill="#121C23"/>
<path d="M161.745 29.4178C160.843 29.732 159.897 29.8992 158.943 29.9133C156.783 29.9133 154.974 29.1555 153.711 27.7223C152.562 26.3777 151.943 24.6534 151.97 22.8771C151.97 19.4764 154.153 15.8295 158.943 15.8295C159.792 15.8199 160.634 15.9721 161.426 16.2781L161.165 18.5647C160.468 18.2437 159.709 18.086 158.943 18.1032C155.935 18.1032 154.363 20.4917 154.363 22.8512C154.363 25.2106 155.935 27.5992 158.943 27.5992C159.803 27.6001 160.654 27.4317 161.45 27.1037L161.745 29.4178Z" fill="#121C23"/>
<path d="M171.284 15.7676C169.092 15.7676 167.253 16.5384 165.97 17.9959C164.828 19.2914 164.208 21.0419 164.208 22.922C164.208 26.3681 166.425 30.0749 171.292 30.0749C173.487 30.0749 175.326 29.3056 176.609 27.8466C177.751 26.5511 178.37 24.8021 178.37 22.922C178.37 19.476 176.154 15.7676 171.284 15.7676ZM174.757 26.2061C173.911 27.1972 172.712 27.7203 171.284 27.7203C168.241 27.7203 166.66 25.3009 166.66 22.9123C166.66 20.5237 168.249 18.1027 171.284 18.1027C174.32 18.1027 175.91 20.5221 175.91 22.9123C175.928 24.1145 175.519 25.2832 174.757 26.2061Z" fill="#121C23"/>
<path d="M171.284 15.7676C169.092 15.7676 167.253 16.5384 165.97 17.9959C164.828 19.2914 164.208 21.0419 164.208 22.922C164.208 26.3681 166.425 30.0749 171.292 30.0749C173.487 30.0749 175.326 29.3056 176.609 27.8466C177.751 26.5511 178.37 24.8021 178.37 22.922C178.37 19.476 176.154 15.7676 171.284 15.7676ZM174.757 26.2061C173.911 27.1972 172.712 27.7203 171.284 27.7203C168.241 27.7203 166.66 25.3009 166.66 22.9123C166.66 20.5237 168.249 18.1027 171.284 18.1027C174.32 18.1027 175.91 20.5221 175.91 22.9123C175.928 24.1145 175.519 25.2832 174.757 26.2061Z" fill="#121C23"/>
<path d="M185.33 21.7771C184.486 21.4857 183.608 21.0517 183.509 20.0347C183.479 19.7873 183.501 19.5362 183.574 19.2982C183.647 19.0601 183.77 18.8406 183.933 18.6541C184.097 18.4677 184.298 18.3186 184.523 18.2168C184.748 18.1151 184.992 18.0629 185.239 18.0639C185.319 18.0639 185.415 18.0639 185.527 18.0639C186.346 18.0831 187.156 18.2475 187.918 18.5497L188.192 16.4218C186.818 15.9619 186.009 15.9004 185.452 15.9004C185.271 15.9004 185.109 15.9004 184.987 15.915C182.78 16.0267 181.238 17.7141 181.238 20.0153C181.238 22.3164 183.283 23.3949 185.279 24.1334C186.08 24.4151 186.901 24.8459 186.977 25.8871C186.997 26.0876 186.977 26.2903 186.917 26.4825C186.857 26.6747 186.758 26.8524 186.627 27.0045C186.447 27.2107 186.229 27.3787 185.984 27.4988C185.739 27.6189 185.474 27.6887 185.202 27.7041C185.071 27.7154 184.918 27.7219 184.763 27.7219C183.558 27.7195 182.375 27.3937 181.335 26.7778L181.062 29.0806C182.243 29.67 183.539 29.9885 184.856 30.0133C184.989 30.0133 185.115 30.0133 185.236 30.0004C187.648 29.8725 189.267 28.2336 189.267 25.9195C189.267 24.1285 187.978 22.7666 185.33 21.7771Z" fill="#121C23"/>
<path d="M189.267 25.9107C189.267 28.2248 187.648 29.8637 185.236 29.9916C185.115 29.9997 184.989 30.0046 184.856 30.0046C183.539 29.9797 182.243 29.6612 181.062 29.0718L181.335 26.769C182.375 27.3849 183.558 27.7107 184.763 27.7131C184.923 27.7131 185.071 27.7131 185.202 27.6953C185.474 27.6799 185.739 27.6101 185.984 27.49C186.229 27.3699 186.447 27.2019 186.627 26.9957C186.758 26.8436 186.857 26.6659 186.917 26.4737C186.977 26.2815 186.997 26.0789 186.977 25.8784C186.901 24.8371 186.076 24.4063 185.279 24.1246C183.283 23.3861 181.238 22.3173 181.238 20.0065C181.238 17.6956 182.78 16.0179 184.987 15.9062C185.109 15.9062 185.271 15.8916 185.452 15.8916C186.009 15.8916 186.818 15.9531 188.192 16.413L187.918 18.5409C187.156 18.2388 186.346 18.0743 185.527 18.0551C185.415 18.0551 185.319 18.0551 185.239 18.0551C184.992 18.0541 184.748 18.1063 184.523 18.208C184.298 18.3098 184.097 18.4589 183.933 18.6453C183.77 18.8318 183.647 19.0513 183.574 19.2894C183.501 19.5274 183.479 19.7785 183.509 20.0259C183.608 21.0429 184.486 21.4833 185.33 21.7684C187.978 22.7675 189.267 24.1294 189.267 25.9107Z" fill="#121C23"/>
<path d="M191.112 16.0322V18.267H194.684V29.8731H196.914V18.267H200.487V16.0322H191.112Z" fill="#121C23"/>
<path d="M200.487 16.0322V18.267H196.914V29.8731H194.684V18.267H191.112V16.0322H200.487Z" fill="#121C23"/>
<path d="M206.622 15.6465L200.905 29.8728H203.457L204.019 28.3101H209.221L209.804 29.8728H212.338L206.622 15.6465ZM204.826 26.234L206.631 21.1686L208.384 26.234H204.826Z" fill="#121C23"/>
<path d="M206.622 15.6465L200.905 29.8728H203.457L204.019 28.3101H209.221L209.804 29.8728H212.338L206.622 15.6465ZM204.826 26.234L206.631 21.1686L208.384 26.234H204.826Z" fill="#121C23"/>
<path d="M57.3797 36.3686C57.1845 36.2765 56.982 36.2012 56.7743 36.1435C56.5417 36.0745 56.3007 36.039 56.0583 36.0382C55.7372 36.0216 55.4208 36.1216 55.1662 36.32C55.0604 36.4041 54.9752 36.5116 54.9171 36.6343C54.859 36.7571 54.8297 36.8917 54.8314 37.0277C54.8251 37.2244 54.8933 37.4161 55.022 37.5637C55.1648 37.7165 55.3356 37.8397 55.525 37.9264C55.7316 38.0252 55.951 38.1208 56.1849 38.2114C56.3707 38.2811 56.5549 38.3588 56.7391 38.4446C56.9168 38.5281 57.0836 38.6337 57.2356 38.7588C57.3856 38.8843 57.5069 39.0412 57.5912 39.2187C57.6844 39.431 57.7292 39.6618 57.7225 39.894C57.7278 40.1904 57.6501 40.4824 57.4983 40.7361C57.3497 40.9812 57.1345 41.178 56.8784 41.3028C56.5903 41.4426 56.2737 41.5119 55.9542 41.5053C55.6943 41.508 55.4353 41.4726 55.1854 41.4C54.9759 41.3388 54.7731 41.2563 54.58 41.1539C54.4086 41.0599 54.2708 40.9806 54.1699 40.9174L54.3541 40.5936C54.4891 40.6907 54.6316 40.7768 54.7802 40.851C54.9547 40.9401 55.137 41.0128 55.3248 41.068C55.5159 41.1268 55.7145 41.1568 55.9142 41.1571C56.1427 41.1574 56.3689 41.1106 56.5789 41.0195C56.7905 40.9326 56.9748 40.7893 57.1123 40.6049C57.2593 40.4009 57.3338 40.1527 57.3237 39.9005C57.3349 39.6627 57.2647 39.4282 57.1251 39.2365C56.9866 39.063 56.8129 38.9217 56.6157 38.822C56.4013 38.7118 56.1803 38.615 55.9542 38.5321C55.7732 38.4625 55.5938 38.388 55.4128 38.3102C55.238 38.2362 55.0725 38.1416 54.9195 38.0285C54.7738 37.9239 54.6528 37.7878 54.5655 37.6301C54.4729 37.4574 54.4271 37.263 54.4326 37.0665C54.4269 36.8119 54.4996 36.5617 54.6408 36.3508C54.7814 36.1411 54.975 35.9734 55.2014 35.865C55.455 35.7464 55.7309 35.6845 56.0103 35.6836C56.2805 35.6852 56.5495 35.7206 56.8111 35.7889C57.0582 35.8488 57.2975 35.9379 57.5239 36.0544L57.3797 36.3686Z" fill="#121C23"/>
<path d="M58.8215 38.5893C58.8183 38.2 58.8941 37.8142 59.0441 37.4557C59.1906 37.1076 59.4016 36.791 59.6656 36.523C59.9282 36.2524 60.2405 36.0362 60.585 35.8865C60.9397 35.7346 61.321 35.6562 61.7062 35.6562C62.0914 35.6562 62.4727 35.7346 62.8274 35.8865C63.1736 36.0357 63.4875 36.2519 63.7516 36.523C64.016 36.7913 64.228 37.1078 64.3762 37.4557C64.527 37.8142 64.6047 38.1998 64.6047 38.5893C64.6047 38.9788 64.527 39.3644 64.3762 39.7229C64.2269 40.0681 64.0138 40.3814 63.7484 40.6459C63.4835 40.9135 63.1696 41.1264 62.8242 41.2726C62.4696 41.4245 62.0881 41.5016 61.703 41.4994C61.3186 41.5028 60.9374 41.4285 60.5818 41.2807C60.2389 41.1398 59.9265 40.9324 59.6624 40.6702C59.3964 40.4063 59.1851 40.0914 59.0409 39.7439C58.8916 39.3779 58.8169 38.9852 58.8215 38.5893ZM59.2187 38.5893C59.2175 39.2568 59.4785 39.8976 59.9443 40.3706C60.1716 40.6006 60.4401 40.7847 60.7355 40.9131C61.039 41.0451 61.3662 41.1123 61.6966 41.1107C62.0332 41.1133 62.3669 41.0461 62.6768 40.9131C62.9758 40.7861 63.2478 40.6019 63.4777 40.3706C63.7064 40.1379 63.8891 39.863 64.0159 39.5609C64.2739 38.9282 64.2739 38.218 64.0159 37.5853C63.7603 36.9743 63.2828 36.4857 62.6816 36.2201C62.375 36.0851 62.0438 36.0167 61.7094 36.0193C61.3724 36.0164 61.0387 36.0865 60.7307 36.225C60.281 36.4276 59.8992 36.758 59.6318 37.1761C59.3645 37.5941 59.2232 38.0818 59.2251 38.5796L59.2187 38.5893Z" fill="#121C23"/>
<path d="M70.1042 41.0614C69.9691 41.1438 69.8283 41.2163 69.683 41.2784C69.5139 41.3506 69.3378 41.4049 69.1576 41.4403C68.9531 41.4823 68.7449 41.503 68.5362 41.5019C68.1344 41.507 67.7359 41.4288 67.3653 41.2719C67.0289 41.1264 66.7249 40.9138 66.4716 40.6468C66.2225 40.3813 66.0267 40.0695 65.8949 39.7287C65.7578 39.3765 65.6887 39.0011 65.6915 38.6226C65.6882 38.2231 65.761 37.8267 65.9061 37.455C66.045 37.1038 66.2507 36.7836 66.5116 36.5126C66.8802 36.1411 67.341 35.877 67.8456 35.7482C68.3502 35.6194 68.8798 35.6306 69.3787 35.7806C69.6265 35.8556 69.8643 35.9611 70.0866 36.0948L69.9264 36.4575C69.7291 36.3332 69.5178 36.2332 69.297 36.1595C69.0587 36.0778 68.8086 36.0368 68.557 36.0381C68.2308 36.0366 67.9078 36.1039 67.6088 36.2356C67.3149 36.3648 67.0489 36.5507 66.8255 36.783C66.5993 37.0162 66.4194 37.2911 66.2954 37.5927C66.1663 37.9123 66.1015 38.2547 66.1048 38.5999C66.1025 38.9317 66.1606 39.261 66.2761 39.5716C66.3856 39.872 66.5533 40.1473 66.7695 40.3813C66.9886 40.6144 67.2531 40.7991 67.5463 40.9238C67.8663 41.0588 68.2103 41.1261 68.557 41.1213C68.8151 41.124 69.072 41.0847 69.3178 41.0047C69.5348 40.9332 69.742 40.8341 69.9345 40.71L70.1042 41.0614Z" fill="#121C23"/>
<path d="M71.5459 35.7236H71.9367V41.44H71.5459V35.7236Z" fill="#121C23"/>
<path d="M73.7354 35.7236H77.2239V36.1026H74.1262V38.3697H76.9132V38.747H74.1262V41.0579H77.3296V41.4368H73.7354V35.7236Z" fill="#121C23"/>
<path d="M78.8232 41.4403V35.7239H80.2167C80.6959 35.7109 81.1724 35.8003 81.615 35.9862C81.9744 36.141 82.2943 36.3764 82.5504 36.6745C82.7831 36.9485 82.9614 37.2651 83.0758 37.6072C83.1822 37.9322 83.2363 38.2722 83.236 38.6145C83.2423 39.0161 83.1665 39.4147 83.0133 39.7853C82.8717 40.1205 82.6647 40.4235 82.4047 40.676C82.1499 40.9206 81.8508 41.1131 81.5237 41.2428C81.1917 41.3749 80.8378 41.4419 80.481 41.4403H78.8232ZM79.2141 41.0614H80.3833C80.7107 41.0663 81.0362 41.0114 81.3443 40.8995C81.6352 40.7916 81.9019 40.6265 82.1292 40.4136C82.3573 40.1949 82.5374 39.93 82.6577 39.6363C82.7907 39.3082 82.8561 38.9561 82.85 38.6015C82.8522 38.2819 82.798 37.9643 82.6898 37.6639C82.5821 37.3682 82.4152 37.0981 82.1997 36.8704C81.9731 36.6338 81.7004 36.4474 81.3988 36.3231C81.042 36.1814 80.6608 36.1132 80.2776 36.1223H79.2189L79.2141 41.0614Z" fill="#121C23"/>
<path d="M83.9678 41.4404L86.3559 35.4746H86.388L88.7761 41.4404H88.3389L86.2566 36.0965L86.5273 35.9426L84.357 41.4404H83.9678ZM85.121 39.1733H87.6293L87.7414 39.5441H85.0265L85.121 39.1733Z" fill="#121C23"/>
<path d="M90.084 41.4394V35.723H91.4775C91.9561 35.7098 92.4321 35.7992 92.8742 35.9853C93.2335 36.1401 93.5534 36.3754 93.8096 36.6735C94.0428 36.9471 94.2212 37.2639 94.3349 37.6063C94.442 37.931 94.4961 38.2712 94.4951 38.6136C94.5008 39.0151 94.4251 39.4136 94.2725 39.7844C94.1308 40.12 93.9232 40.423 93.6622 40.675C93.4078 40.9192 93.1092 41.1117 92.7829 41.2418C92.4508 41.3737 92.097 41.4407 91.7402 41.4394H90.084ZM90.4732 41.0604H91.6441C91.9714 41.0653 92.297 41.0105 92.6051 40.8985C92.8952 40.7902 93.1614 40.6251 93.3883 40.4127C93.6165 40.1936 93.797 39.9289 93.9185 39.6354C94.0501 39.3069 94.115 38.955 94.1091 38.6006C94.1114 38.2809 94.0571 37.9634 93.9489 37.663C93.8436 37.3683 93.6801 37.0983 93.4684 36.8695C93.2418 36.633 92.9691 36.4466 92.6675 36.3221C92.3108 36.1801 91.9296 36.1118 91.5463 36.1213H90.4876L90.4732 41.0604Z" fill="#121C23"/>
<path d="M95.9434 35.7236H99.4303V36.1026H96.3342V38.3697H99.1212V38.747H96.3342V41.0579H99.5376V41.4368H95.9434V35.7236Z" fill="#121C23"/>
<path d="M103.472 35.7236H103.861V41.44H103.472V35.7236Z" fill="#121C23"/>
<path d="M110.397 41.5755L105.938 36.4955L106.04 36.4161L106.048 41.4362H105.667V35.6016H105.691L110.15 40.7221L110.046 40.7545V35.723H110.421V41.5755H110.397Z" fill="#121C23"/>
<path d="M112.212 41.4404V35.7239H113.605C114.085 35.7108 114.561 35.8002 115.004 35.9863C115.363 36.141 115.683 36.3764 115.939 36.6745C116.172 36.9485 116.35 37.2652 116.464 37.6073C116.572 37.932 116.626 38.2722 116.625 38.6145C116.631 39.0162 116.555 39.4148 116.402 39.7854C116.261 40.1209 116.054 40.4239 115.793 40.676C115.539 40.9206 115.239 41.1131 114.912 41.2428C114.584 41.3733 114.235 41.4404 113.882 41.4404H112.212ZM112.603 41.0614H113.774C114.101 41.0666 114.427 41.0117 114.735 40.8995C115.025 40.7916 115.292 40.6265 115.519 40.4137C115.748 40.1949 115.928 39.9301 116.048 39.6364C116.181 39.3082 116.246 38.9561 116.24 38.6016C116.242 38.2819 116.188 37.9644 116.08 37.664C115.972 37.3682 115.805 37.0981 115.59 36.8705C115.363 36.6338 115.091 36.4474 114.789 36.3231C114.432 36.1815 114.051 36.1132 113.668 36.1223H112.601L112.603 41.0614Z" fill="#121C23"/>
<path d="M118.072 35.7236H118.463V41.44H118.072V35.7236Z" fill="#121C23"/>
<path d="M120.206 35.7236L122.288 41.0773L122.074 41.0449L124.111 35.7236H124.558L122.155 41.7056L119.753 35.7236H120.206Z" fill="#121C23"/>
<path d="M125.852 35.7236H126.242V41.44H125.852V35.7236Z" fill="#121C23"/>
<path d="M128.041 41.4404V35.724H129.434C129.914 35.7106 130.39 35.8 130.833 35.9863C131.192 36.1411 131.512 36.3764 131.768 36.6745C132.001 36.9481 132.18 37.2649 132.294 37.6073C132.401 37.932 132.455 38.2722 132.454 38.6146C132.46 39.0163 132.383 39.4149 132.229 39.7854C132.089 40.1212 131.882 40.4244 131.621 40.676C131.366 40.9202 131.068 41.1127 130.741 41.2428C130.409 41.3748 130.055 41.4418 129.697 41.4404H128.041ZM128.432 41.0614H129.603C129.93 41.0666 130.256 41.0117 130.564 40.8995C130.855 40.7916 131.121 40.6265 131.349 40.4137C131.577 40.1946 131.757 39.9299 131.879 39.6364C132.01 39.3079 132.075 38.956 132.069 38.6016C132.072 38.2819 132.017 37.9644 131.909 37.664C131.801 37.3682 131.635 37.0981 131.419 36.8705C131.193 36.6338 130.92 36.4474 130.618 36.3231C130.261 36.1815 129.88 36.1132 129.497 36.1223H128.438L128.432 41.0614Z" fill="#121C23"/>
<path d="M134.261 39.513C134.253 39.8132 134.323 40.1103 134.464 40.3745C134.592 40.6097 134.784 40.8033 135.017 40.9332C135.262 41.0679 135.538 41.136 135.817 41.1308C136.097 41.1345 136.372 41.0665 136.618 40.9332C136.853 40.8044 137.046 40.6106 137.176 40.3745C137.317 40.1103 137.387 39.8132 137.379 39.513V35.7236H137.762V39.5324C137.772 39.9038 137.683 40.271 137.502 40.5947C137.337 40.8826 137.093 41.1168 136.801 41.27C136.493 41.4244 136.154 41.5048 135.81 41.5048C135.467 41.5048 135.127 41.4244 134.82 41.27C134.528 41.1174 134.286 40.8829 134.123 40.5947C133.945 40.2702 133.857 39.9032 133.868 39.5324V35.7236H134.257L134.261 39.513Z" fill="#121C23"/>
<path d="M138.999 41.4404L141.389 35.4746H141.419L143.809 41.4404H143.37L141.288 36.0965L141.559 35.9426L139.39 41.4404H138.999ZM140.154 39.1733H142.662L142.774 39.5441H140.051L140.154 39.1733Z" fill="#121C23"/>
<path d="M145.116 35.7236H145.507V41.0676H148.605V41.4465H145.116V35.7236Z" fill="#121C23"/>
<path d="M152.36 41.4403V35.7239H153.754C154.233 35.7109 154.71 35.8003 155.152 35.9862C155.512 36.141 155.831 36.3764 156.088 36.6745C156.32 36.9485 156.499 37.2651 156.613 37.6072C156.72 37.932 156.774 38.2722 156.773 38.6145C156.779 39.0161 156.704 39.4147 156.55 39.7853C156.409 40.1208 156.202 40.4239 155.942 40.676C155.687 40.9206 155.388 41.1131 155.061 41.2428C154.729 41.3749 154.375 41.4419 154.018 41.4403H152.36ZM152.751 41.0614H153.925C154.253 41.0665 154.578 41.0117 154.886 40.8995C155.177 40.7916 155.444 40.6265 155.671 40.4136C155.899 40.1949 156.079 39.93 156.2 39.6363C156.333 39.3082 156.398 38.9561 156.392 38.6015C156.394 38.2819 156.34 37.9643 156.232 37.6639C156.124 37.3682 155.957 37.0981 155.742 36.8704C155.515 36.6338 155.242 36.4474 154.941 36.3231C154.584 36.1814 154.203 36.1132 153.82 36.1223H152.761L152.751 41.0614Z" fill="#121C23"/>
<path d="M158.221 35.7236H161.709V36.1026H158.612V38.3697H161.399V38.747H158.612V41.0579H161.815V41.4368H158.221V35.7236Z" fill="#121C23"/>
<path d="M165.261 41.4404L167.649 35.4746H167.681L170.071 41.4404H169.632L167.55 36.0965L167.82 35.9426L165.65 41.4404H165.261ZM166.416 39.1733H168.924L169.034 39.5441H166.319L166.416 39.1733Z" fill="#121C23"/>
<path d="M171.384 41.4394V35.723H172.777C173.256 35.7098 173.732 35.7992 174.174 35.9853C174.534 36.1401 174.854 36.3754 175.111 36.6735C175.344 36.9475 175.522 37.2642 175.636 37.6063C175.743 37.9312 175.797 38.2713 175.796 38.6136C175.803 39.0152 175.727 39.4138 175.574 39.7844C175.432 40.1196 175.225 40.4225 174.965 40.675C174.71 40.9197 174.411 41.1121 174.084 41.2418C173.752 41.374 173.398 41.441 173.042 41.4394H171.384ZM171.775 41.0605H172.944C173.271 41.0653 173.597 41.0105 173.905 40.8985C174.195 40.7903 174.462 40.6252 174.69 40.4127C174.917 40.1935 175.097 39.9288 175.218 39.6354C175.351 39.3073 175.417 38.9552 175.41 38.6006C175.412 38.281 175.358 37.9636 175.25 37.663C175.143 37.3672 174.976 37.0971 174.76 36.8695C174.534 36.6328 174.261 36.4464 173.959 36.3221C173.603 36.1805 173.221 36.1122 172.838 36.1213H171.779L171.775 41.0605Z" fill="#121C23"/>
<path d="M177.062 35.7236L179.144 41.0773L178.929 41.0449L180.968 35.7236H181.414L179.011 41.7056L176.608 35.7236H177.062Z" fill="#121C23"/>
<path d="M182.006 38.5893C182.003 38.2 182.079 37.8142 182.229 37.4557C182.375 37.1076 182.586 36.791 182.85 36.523C183.113 36.2524 183.425 36.0362 183.77 35.8865C184.124 35.7346 184.506 35.6562 184.891 35.6562C185.276 35.6562 185.657 35.7346 186.012 35.8865C186.358 36.0357 186.672 36.2519 186.936 36.523C187.201 36.7913 187.413 37.1078 187.561 37.4557C187.712 37.8142 187.789 38.1997 187.789 38.5893C187.789 38.9788 187.712 39.3644 187.561 39.7229C187.413 40.0708 187.201 40.3868 186.936 40.654C186.671 40.9216 186.357 41.1345 186.012 41.2807C185.657 41.4326 185.276 41.5097 184.891 41.5074C184.506 41.5106 184.125 41.4363 183.77 41.2888C183.427 41.1479 183.114 40.9405 182.85 40.6783C182.584 40.4144 182.373 40.0995 182.229 39.752C182.077 39.3837 182.001 38.9881 182.006 38.5893ZM182.403 38.5893C182.402 39.2568 182.663 39.8975 183.129 40.3706C183.356 40.6006 183.625 40.7847 183.92 40.9131C184.224 41.0451 184.551 41.1123 184.881 41.1107C185.217 41.1131 185.55 41.0459 185.86 40.9131C186.159 40.7861 186.431 40.6019 186.661 40.3706C186.889 40.1378 187.072 39.863 187.199 39.5609C187.328 39.2479 187.394 38.9122 187.394 38.5731C187.394 38.234 187.328 37.8983 187.199 37.5853C186.943 36.9743 186.466 36.4857 185.865 36.2201C185.559 36.0853 185.228 36.0169 184.894 36.0193C184.556 36.0162 184.222 36.0864 183.914 36.225C183.464 36.4276 183.082 36.758 182.815 37.1761C182.547 37.5941 182.406 38.0818 182.408 38.5796L182.403 38.5893Z" fill="#121C23"/>
<path d="M193.289 41.0615C193.154 41.1438 193.013 41.2163 192.868 41.2785C192.699 41.3507 192.522 41.4049 192.342 41.4404C192.138 41.4824 191.929 41.503 191.721 41.5019C191.319 41.5069 190.921 41.4287 190.55 41.272C190.209 41.128 189.901 40.9153 189.643 40.6469C189.395 40.3809 189.199 40.0692 189.067 39.7287C188.93 39.3766 188.861 39.0011 188.863 38.6227C188.86 38.2231 188.933 37.8267 189.078 37.4551C189.215 37.1053 189.419 36.7864 189.679 36.517C189.939 36.2477 190.249 36.0331 190.592 35.8859C191.213 35.6253 191.905 35.5882 192.55 35.7807C192.798 35.8557 193.036 35.9612 193.258 36.0948L193.098 36.4576C192.901 36.3333 192.69 36.2333 192.469 36.1596C192.231 36.0779 191.98 36.0368 191.729 36.0381C191.403 36.0367 191.08 36.104 190.781 36.2357C190.487 36.3652 190.221 36.5511 189.997 36.783C189.771 37.0163 189.591 37.2911 189.467 37.5927C189.339 37.9126 189.274 38.2549 189.277 38.6C189.274 38.9318 189.332 39.2611 189.448 39.5716C189.557 39.8721 189.725 40.1473 189.941 40.3813C190.16 40.6145 190.425 40.7992 190.718 40.9238C191.036 41.0622 191.379 41.1333 191.726 41.1327C191.984 41.1354 192.241 41.0961 192.486 41.0161C192.703 40.9445 192.911 40.8455 193.103 40.7214L193.289 41.0615Z" fill="#121C23"/>
<path d="M194.237 41.4404L196.625 35.4746H196.657L199.047 41.4404H198.613L196.531 36.0965L196.802 35.9426L194.628 41.4339L194.237 41.4404ZM195.392 39.1733H197.9L198.011 39.5441H195.288L195.392 39.1733Z" fill="#121C23"/>
<path d="M204.19 41.0617C204.055 41.1441 203.914 41.2166 203.769 41.2787C203.599 41.3509 203.423 41.4052 203.243 41.4407C203.039 41.4827 202.83 41.5033 202.622 41.5022C202.22 41.5074 201.821 41.4291 201.451 41.2723C201.112 41.1265 200.806 40.9128 200.551 40.6439C200.302 40.3784 200.106 40.0666 199.974 39.7257C199.837 39.3736 199.768 38.9981 199.771 38.6197C199.767 38.2202 199.84 37.8237 199.985 37.4521C200.124 37.1009 200.33 36.7807 200.591 36.5096C200.959 36.1381 201.42 35.8741 201.925 35.7453C202.429 35.6164 202.959 35.6276 203.458 35.7777C203.706 35.8527 203.943 35.9582 204.166 36.0918L204.006 36.4546C203.808 36.3303 203.597 36.2303 203.376 36.1566C203.138 36.0749 202.888 36.0338 202.636 36.0351C202.31 36.0337 201.987 36.101 201.688 36.2327C201.394 36.3619 201.128 36.5478 200.905 36.7801C200.678 37.0133 200.499 37.2881 200.374 37.5898C200.245 37.9094 200.181 38.2518 200.184 38.597C200.182 38.9288 200.24 39.2581 200.355 39.5687C200.465 39.8691 200.632 40.1444 200.849 40.3784C201.068 40.6115 201.332 40.7962 201.625 40.9209C201.945 41.0559 202.289 41.1232 202.636 41.1184C202.894 41.1211 203.151 41.0818 203.397 41.0018C203.614 40.9302 203.821 40.8312 204.014 40.7071L204.19 41.0617Z" fill="#121C23"/>
<path d="M205.632 35.7236H206.023V41.44H205.632V35.7236Z" fill="#121C23"/>
<path d="M207.328 41.4404L209.716 35.4746H209.748L212.138 41.4404H211.699L209.617 36.0965L209.888 35.9426L207.714 41.4339L207.328 41.4404ZM208.483 39.1733H210.991L211.103 39.5441H208.38L208.483 39.1733Z" fill="#121C23"/>
<path d="M36.8365 0H8.16895V3.4833H36.8365V0Z" fill="#3F89B2"/>
<path d="M33.5159 22.1432L33.0915 22.4428L32.7071 22.7165L29.7743 24.799L28.5506 25.667L26.7967 26.9123L22.6146 29.8823L22.5265 29.9454L22.4561 29.8952L20.2217 28.3082L19.9926 28.1463V21.604L20.2217 21.442L22.5265 19.8048L25.0893 21.6185L25.1165 21.638L25.4593 21.8776L25.5426 21.8193L28.3856 19.8194L27.8955 19.4712L27.6232 19.2785L25.4096 17.7045L22.5842 15.7078L22.5233 15.6641L20.2185 17.3013L19.6643 17.6948L16.6947 19.8L16.6418 19.8372V25.7804L15.2852 24.8087L12.4678 22.8201L11.7326 22.2971L11.5724 22.1821L8.2168 19.7854V45.8365L11.7406 48.3336L11.9552 48.4858L14.9312 50.591L15.266 50.8485L15.447 50.9764L16.6979 51.8654L19.5409 53.8735L20.2297 54.3593L22.5169 55.9787L22.5346 55.9916L22.5698 55.9673L25.5442 53.854L25.9831 53.5415L28.5458 51.7181L30.1475 50.5845L33.1235 48.4696L33.5159 48.191L35.8208 46.5539L36.8363 45.8332V19.7951L33.5159 22.1432ZM33.4839 44.0746L33.3237 44.1831L32.8833 44.4956L30.1924 46.413L28.5506 47.5789L27.2164 48.5263L22.6066 51.8007L22.5265 51.8573L22.4641 51.8136L20.2217 50.2201L17.8543 48.5392L16.6979 47.7182L14.8767 46.4227L11.7742 44.2203L11.7326 44.1912L11.5724 44.0762V26.3067L11.7326 26.4233L12.3733 26.8718L13.8805 27.9439L13.9525 27.9957L15.3428 28.9868L16.6386 29.9066V41.1224L16.6979 41.1645L19.5137 43.1645L20.2217 43.6665L20.7486 44.0406L22.0588 44.9717L22.0861 45.0106L22.4769 45.2875L22.5265 45.3231L22.5938 45.2745L24.2997 44.0649L25.5506 43.1499L26.3434 42.5685L26.3755 42.5443L28.203 41.2083L28.1278 41.15L28.1149 41.1402L25.4353 39.0512L25.3007 39.1614L24.8715 39.5128L22.6403 41.0981L22.5378 41.171L22.4417 41.1014L22.2639 40.9702L20.2249 39.5128L19.9958 39.3508V32.2887L20.2249 32.4506L22.5025 34.07L22.5474 34.0392L25.5394 31.934L27.5495 30.5171L27.8346 30.3163L28.5474 29.811L29.7247 28.9738L32.7023 26.8686L33.4807 26.3148L33.4839 44.0746Z" fill="#3F89B2"/>
<path d="M44.8481 7.04102V14.0805L41.4957 16.4594V10.5033H36.8363V13.9639L33.4839 16.2812V10.5033H11.5692V16.231L8.21681 13.9137V10.5033H3.3524V16.2974L0 13.9185V7.04102H44.8481Z" fill="#3F89B2"/>
</svg>
