<svg width="40" height="40" viewBox="0 0 40 40" fill="none" xmlns="http://www.w3.org/2000/svg">
<mask id="mask0_614_1693" style="mask-type:alpha" maskUnits="userSpaceOnUse" x="0" y="0" width="40" height="40">
<circle cx="20" cy="20" r="20" fill="#C4C4C4"/>
</mask>
<g mask="url(#mask0_614_1693)">
<path d="M21.4874 38.4111L22.5566 44.0248" stroke="white" stroke-linecap="round"/>
<path fill-rule="evenodd" clip-rule="evenodd" d="M22.4293 33.2438C23.5607 32.9697 25.9368 32.8052 26.3894 34.3404C26.842 35.8757 26.2008 36.625 25.8237 36.8078C27.9923 38.3613 32.0468 42.6746 30.9153 47.4997H19.8837V47.5001H8.85179C7.72032 42.6751 11.7748 38.3618 13.9434 36.8082C13.5663 36.6255 12.9251 35.8761 13.3777 34.3409C13.8303 32.8056 16.2064 32.9701 17.3378 33.2443L19.8834 34.3408V34.3404L22.4293 33.2438Z" fill="#333333"/>
<path d="M21.4876 39.4806L26.2993 36.54L26.834 37.6093L21.4876 39.4806Z" fill="#1D1D1D"/>
<mask id="mask1_614_1693" style="mask-type:alpha" maskUnits="userSpaceOnUse" x="8" y="33" width="24" height="15">
<path fill-rule="evenodd" clip-rule="evenodd" d="M22.4293 33.2438C23.5607 32.9697 25.9368 32.8052 26.3894 34.3404C26.842 35.8757 26.2008 36.625 25.8237 36.8078C27.9923 38.3613 32.0468 42.6746 30.9153 47.4997H19.8837V47.5001H8.85179C7.72032 42.6751 11.7748 38.3618 13.9434 36.8082C13.5663 36.6255 12.9251 35.8761 13.3777 34.3409C13.8303 32.8056 16.2064 32.9701 17.3378 33.2443L19.8834 34.3408V34.3404L22.4293 33.2438Z" fill="#333333"/>
</mask>
<g mask="url(#mask1_614_1693)">
<path d="M18.28 39.4806L13.4682 36.54L12.9336 37.6093L18.28 39.4806Z" fill="#1D1D1D"/>
</g>
<path d="M18.2792 38.6777L17.21 44.2914" stroke="white" stroke-linecap="round"/>
<rect x="16.1406" y="26.1143" width="7.48494" height="11.2274" rx="3.74247" fill="#F5B1B1"/>
<path d="M27.3683 19.699C27.3683 22.0612 27.8549 24.2434 29.7741 24.2434C31.6934 24.2434 33.5166 21.5265 33.5166 19.1643C33.5166 16.8022 32.7627 15.4219 30.8434 15.4219C28.9241 15.4219 27.3683 17.3368 27.3683 19.699Z" fill="#F5B1B1"/>
<path d="M12.3983 19.7C12.3983 22.0621 11.9117 24.2444 9.99247 24.2444C8.0732 24.2444 6.25 21.5275 6.25 19.1653C6.25 16.8031 7.00392 15.4229 8.92319 15.4229C10.8425 15.4229 12.3983 17.3378 12.3983 19.7Z" fill="#F5B1B1"/>
<rect x="9.19043" y="6.33301" width="21.3855" height="26.1973" rx="10.6928" fill="#FFD9CB"/>
<path d="M19.8838 29.3224C21.5768 29.5897 22.8243 28.7878 23.3589 27.4512" stroke="#EB5757" stroke-linecap="round"/>
<rect x="19.3486" y="23.4414" width="2.13855" height="3.74247" rx="1.06928" fill="#F5B1B1"/>
<path d="M21.4531 20.0194C21.4531 18.642 22.5697 17.5254 23.9471 17.5254H25.9787C27.3561 17.5254 28.4727 18.642 28.4727 20.0194V20.5005C28.4727 22.4389 26.9013 24.0103 24.9629 24.0103C23.0245 24.0103 21.4531 22.4389 21.4531 20.5005V20.0194Z" fill="white" fill-opacity="0.3" stroke="#333333"/>
<path d="M11.2949 20.0194C11.2949 18.642 12.4115 17.5254 13.7889 17.5254H15.8205C17.1979 17.5254 18.3145 18.642 18.3145 20.0194V20.5005C18.3145 22.4389 16.7431 24.0103 14.8047 24.0103C12.8663 24.0103 11.2949 22.4389 11.2949 20.5005V20.0194Z" fill="white" fill-opacity="0.3" stroke="#333333"/>
<circle cx="15.9121" cy="20.2334" r="2" fill="#092C4C"/>
<circle cx="30.9121" cy="20.2334" r="2" fill="#092C4C"/>
<path d="M21.4873 15.1546C22.2893 14.4418 24.4813 13.4438 26.8337 15.1546" stroke="#282828" stroke-linecap="round"/>
<path d="M12.9326 15.1546C13.7346 14.4418 15.9266 13.4438 18.279 15.1546" stroke="#282828" stroke-linecap="round"/>
<path d="M11.8642 9.8078C11.2603 8.84205 8.5728 12.7481 8.5728 12.7481C8.5728 12.7481 7.77088 15.4217 8.30552 17.2929C8.84016 19.1642 9.10756 22.372 9.10756 22.372C9.10756 22.372 9.64212 18.6781 10.7114 17.5602C11.7807 16.4424 12.6604 11.0811 11.8642 9.8078Z" fill="#333333"/>
<path d="M7.58679 14.8872C12.3941 14.7073 13.7938 9.77866 15.339 8.20424C16.7125 6.76471 18.2315 7.38998 17.3731 7.01514C10.0934 4.13621 7.81571 11.0636 7.58679 14.8872Z" fill="#092C4C"/>
<path d="M27.3683 13.0155C27.9722 12.0497 31.1109 12.7478 31.1109 12.7478C31.1109 12.7478 31.9128 15.4214 31.3782 17.2927C30.8435 19.1639 30.5761 22.3717 30.5761 22.3717C30.5761 22.3717 30.0416 18.6779 28.9723 17.56C27.903 16.4421 26.5721 14.2888 27.3683 13.0155Z" fill="#333333"/>
<path d="M31.6454 14.3524C23.4044 14.1162 16.0463 9.92436 13.3973 7.85794C11.0427 5.96855 13.3973 4.51227 14.869 4.0203C27.3483 0.241702 31.253 9.33396 31.6454 14.3524Z" fill="#092C4C"/>
</g>
</svg>
